<?xml version="1.0" encoding="UTF-8"?>
<svg id="Capa_1" data-name="Capa 1" xmlns="http://www.w3.org/2000/svg" viewBox="0 0 1432.62 934">
  <defs>
    <style>
      .cls-1 {
        fill: #fff;
        stroke-width: 0px;
      }
    </style>
  </defs>
  <path class="cls-1" d="M536.38,450.75c-5.9,1.77-13.69,2.65-23.36,2.65-14.4,0-28.85-2.3-43.36-6.9-14.51-4.6-27.32-10.44-38.41-17.52l-23.01,51.68c11.8,8.03,27.08,14.57,45.84,19.65,18.76,5.07,38.29,7.61,58.59,7.61,24.54,0,44.9-3.66,61.06-10.97,16.16-7.31,28.32-17.05,36.46-29.2,8.14-12.15,12.21-25.43,12.21-39.83,0-12.98-2.54-23.77-7.61-32.39-5.08-8.61-11.74-15.58-20-20.89-8.26-5.31-17.41-9.56-27.43-12.74-10.03-3.19-20.06-5.84-30.09-7.96-10.03-2.12-19.24-4.19-27.61-6.19-8.38-2-15.11-4.6-20.18-7.79-5.08-3.19-7.61-7.49-7.61-12.92,0-4.25,1.29-8.02,3.89-11.33,2.59-3.3,6.84-5.96,12.74-7.96,5.9-2,13.68-3.01,23.36-3.01,10.85,0,22.06,1.59,33.63,4.78,11.56,3.19,23.24,7.96,35.04,14.34l21.59-52.04c-12.27-7.08-26.26-12.45-41.95-16.11-15.7-3.66-31.68-5.49-47.97-5.49-24.31,0-44.6,3.66-60.89,10.97-16.28,7.32-28.5,16.99-36.64,29.03-8.14,12.04-12.21,25.49-12.21,40.36,0,13.22,2.59,24.13,7.79,32.75,5.19,8.62,11.91,15.58,20.18,20.89,8.26,5.31,17.4,9.62,27.43,12.92,10.03,3.31,20.06,6.02,30.09,8.14,10.03,2.12,19.17,4.25,27.43,6.37,8.26,2.12,14.98,4.84,20.18,8.14,5.19,3.31,7.79,7.79,7.79,13.45,0,4.02-1.36,7.49-4.07,10.44-2.72,2.95-7.02,5.31-12.92,7.08Z"/>
  <path class="cls-1" d="M761.87,266.15c-16.4-7.31-35.93-10.97-58.59-10.97h-113.28v247.8h70.09v-64.78h43.19c22.66,0,42.18-3.72,58.59-11.15,16.4-7.43,29.08-17.99,38.06-31.68,8.97-13.68,13.45-29.85,13.45-48.5s-4.48-35.22-13.45-49.03c-8.97-13.81-21.66-24.36-38.06-31.68ZM731.78,373.41c-7.2,6.37-18.11,9.56-32.74,9.56h-38.94v-72.57h38.94c14.63,0,25.54,3.19,32.74,9.56,7.2,6.37,10.8,15.34,10.8,26.9s-3.6,20.18-10.8,26.55Z"/>
  <polygon class="cls-1" points="781.51 255.17 781.51 502.97 850.9 502.97 850.9 440.89 876.92 413.01 947.89 502.97 1029.31 502.97 922.83 364.77 1024 255.17 946.83 255.17 850.9 358.12 850.9 255.17 781.51 255.17"/>
  <path class="cls-1" d="M1359.83,338.93c-34.89-38.25-79.5-65.99-129-80.21-5.62-1.61-9.96-6.08-11.42-11.74-8.92-34.57-25.08-67.4-48.02-97.56-22.65-29.78-51.25-56.15-85.01-78.37-34.18-22.5-72.58-40.05-114.14-52.15C929.17,6.36,883.81,0,837.41,0s-89.29,6.03-131.36,17.91c-41.09,11.61-79.18,28.52-113.22,50.25-13.12,8.38-25.71,17.56-37.4,27.3-5.07,4.22-7.23,11.12-5.51,17.59,2.35,8.84,10.1,12.8,16.74,12.8,2.8,0,6.98-.7,11.01-4.04,66.93-55.49,161.61-87.31,259.75-87.31,91.72,0,178.75,26.92,245.06,75.81,63.04,46.48,101.36,108.18,109.04,175,118.72,18.3,206.6,119.8,206.61,241.52,0,65.17-25.48,126.53-71.75,172.78-46.25,46.22-107.58,71.67-172.7,71.67-.56,0-1.11,0-1.67,0-13.65-.09-27.34-1.32-40.68-3.66-1.07-.19-2.14-.28-3.19-.28-5.4,0-10.41,2.49-13.75,6.83-1.9,2.47-4.81,7.69-2.92,14.8,1.72,6.46,7.14,11.4,13.81,12.58,15.95,2.82,32.23,4.24,48.41,4.24,37.64,0,74.17-7.38,108.59-21.94,33.22-14.05,63.05-34.16,88.65-59.76,25.6-25.6,45.71-55.43,59.76-88.65,14.56-34.42,21.94-70.96,21.94-108.6,0-69.7-25.85-136.44-72.79-187.9Z"/>
  <path class="cls-1" d="M917.94,807.59c-2.81,0-7.02.71-11.05,4.07-66.99,55.82-161.89,87.84-260.38,87.84-150.99,0-285.63-74.66-335.29-183.69l-179.91,118.29c-2.76,1.81-5.91,2.71-9.07,2.71-3.39,0-6.78-1.04-9.66-3.12-5.55-4.01-8.05-11.02-6.29-17.64l42.59-159.62c-72.43-52.29-114.97-135.7-114.38-225.48,1-151.05,124.71-273.93,275.78-273.93,20.83,0,41.6,2.34,61.73,6.95,1.36.31,2.72.47,4.05.47,5.34,0,10.32-2.49,13.66-6.84,1.91-2.48,4.83-7.72,2.93-14.86-1.65-6.21-6.56-10.96-12.8-12.4-22.6-5.19-46.01-7.83-69.58-7.83-41.87,0-82.51,8.21-120.79,24.41-36.95,15.63-70.13,38-98.61,66.48-28.48,28.48-50.85,61.66-66.48,98.61C8.21,350.3,0,390.94,0,432.81c0,43.97,9.03,86.51,26.83,126.44,17.68,39.65,43.02,74.54,75.32,103.71,4.59,4.15,6.48,10.52,4.88,16.5l-33.77,126.57c-5.37,20.14,1.26,41.31,16.91,53.95,9.06,7.31,20.45,11.34,32.07,11.34,9.99,0,19.67-2.9,28.02-8.39l135.09-88.83c2.79-1.83,5.94-2.71,9.05-2.71,5.14,0,10.19,2.4,13.41,6.87,5.8,8.06,12.15,16.02,18.86,23.65,23.85,27.12,52.87,50.91,86.27,70.71,33.1,19.63,69.72,34.87,108.84,45.29,40.07,10.68,82.04,16.09,124.72,16.09,45.02,0,89.15-6.01,131.16-17.86,41.03-11.57,79.08-28.43,113.09-50.09,13.51-8.6,26.43-18.05,38.41-28.07,5.06-4.23,7.22-11.14,5.51-17.59-2.35-8.84-10.1-12.8-16.74-12.8Z"/>
  <path class="cls-1" d="M474.57,168.64c12.72,0,23.06-10.35,23.06-23.06s-10.35-23.06-23.06-23.06-23.06,10.34-23.06,23.06,10.35,23.06,23.06,23.06Z"/>
  <path class="cls-1" d="M1006.54,760.92c-12.72,0-23.06,10.34-23.06,23.06s10.35,23.06,23.06,23.06,23.06-10.35,23.06-23.06-10.35-23.06-23.06-23.06Z"/>
  <g>
    <path class="cls-1" d="M509.25,557.22c-11.52-5.79-24.73-8.69-39.64-8.69h-61.3v139.78h61.3c14.91,0,28.12-2.9,39.64-8.69,11.51-5.79,20.47-13.94,26.86-24.46,6.39-10.51,9.58-22.76,9.58-36.74s-3.19-26.22-9.58-36.74c-6.39-10.51-15.34-18.67-26.86-24.46ZM513.24,643.58c-4.33,7.19-10.32,12.78-17.97,16.77-7.66,3.99-16.74,5.99-27.26,5.99h-33.75v-95.85h33.75c10.51,0,19.6,2,27.26,5.99,7.65,3.99,13.64,9.52,17.97,16.57,4.32,7.06,6.49,15.51,6.49,25.36s-2.17,17.97-6.49,25.16Z"/>
    <path class="cls-1" d="M662.6,641.58c8.85-3.99,15.67-9.65,20.47-16.97,4.79-7.32,7.19-16.11,7.19-26.36s-2.4-19.3-7.19-26.76c-4.79-7.45-11.62-13.14-20.47-17.07-8.85-3.92-19.47-5.89-31.85-5.89h-57.51v139.78h25.96v-40.73h31.55c1.86,0,3.67-.06,5.45-.15l28.49,40.89h27.96l-32.14-45.86c.7-.28,1.41-.56,2.09-.86ZM655.41,577.79c5.79,4.86,8.69,11.68,8.69,20.47s-2.9,15.64-8.69,20.57c-5.79,4.93-14.41,7.39-25.86,7.39h-30.35v-55.71h30.35c11.45,0,20.07,2.43,25.86,7.29Z"/>
    <rect class="cls-1" x="719.21" y="548.53" width="25.96" height="139.78"/>
    <polygon class="cls-1" points="836.7 656.12 790.3 548.53 762.14 548.53 823.24 688.31 848.8 688.31 909.71 548.53 883.95 548.53 836.7 656.12"/>
    <polygon class="cls-1" points="950.44 666.35 950.44 628.01 1017.93 628.01 1017.93 606.64 950.44 606.64 950.44 570.5 1026.52 570.5 1026.52 548.53 924.48 548.53 924.48 688.31 1029.31 688.31 1029.31 666.35 950.44 666.35"/>
  </g>
</svg>
