<?xml version="1.0" encoding="UTF-8"?>
<svg id="Capa_1" data-name="Capa 1" xmlns="http://www.w3.org/2000/svg" viewBox="0 0 180 180">
  <defs>
    <style>
      .cls-1 {
        fill: #080935;
      }

      .cls-1, .cls-2 {
        stroke-width: 0px;
      }

      .cls-2 {
        fill: #fff;
      }
    </style>
  </defs>
  <path class="cls-2" d="M169.29,72.12c-4.19-4.59-9.35-8.12-15.09-10.34-1.35-3.74-3.3-7.29-5.82-10.6-3.13-4.12-7.06-7.75-11.67-10.78-4.56-3.01-9.67-5.34-15.17-6.94-5.63-1.64-11.55-2.47-17.6-2.47s-11.64.79-17.14,2.34c-5.44,1.54-10.5,3.78-15.04,6.68-1.78,1.14-3.49,2.39-5.08,3.71-.53.44-.98.94-1.4,1.47-.81-.19-1.64-.3-2.5-.3-2.37,0-4.55.77-6.34,2.06-.8-.43-1.65-.76-2.56-.97-3.17-.73-6.44-1.1-9.74-1.1-5.86,0-11.55,1.15-16.91,3.42-5.17,2.19-9.82,5.32-13.8,9.3-3.98,3.98-7.11,8.63-9.3,13.8-2.27,5.36-3.42,11.05-3.42,16.91,0,6.15,1.26,12.1,3.76,17.7,1.93,4.34,4.52,8.27,7.72,11.72l-2.88,10.8c-1.45,5.42.4,11.17,4.7,14.65,2.49,2.01,5.61,3.11,8.81,3.11,2.74,0,5.41-.8,7.7-2.3l10.6-6.97c3.01,3.15,6.53,5.92,10.49,8.27,4.4,2.61,9.26,4.63,14.43,6.01,5.24,1.4,10.71,2.1,16.27,2.1,5.86,0,11.62-.79,17.12-2.33,5.43-1.53,10.48-3.77,15.02-6.66,1.83-1.17,3.59-2.45,5.22-3.81.62-.52,1.16-1.13,1.63-1.77.61.11,1.23.17,1.87.17,2.36,0,4.55-.77,6.33-2.06,1.05.63,2.2,1.09,3.44,1.31,2.28.4,4.61.61,6.93.61,5.38,0,10.6-1.06,15.53-3.14,4.75-2.01,9.01-4.88,12.67-8.54,3.66-3.66,6.53-7.92,8.54-12.67,2.08-4.93,3.14-10.15,3.14-15.53,0-9.97-3.7-19.51-10.41-26.86Z"/>
  <g>
    <path class="cls-1" d="M121.77,89.67l16.36-17.72h-12.48l-15.51,16.64v-16.64h-11.22v3.69c-.94-.74-1.99-1.39-3.18-1.92-2.65-1.18-5.81-1.77-9.47-1.77h-18.32v1.05c-1.02-.37-2.08-.7-3.2-.96-2.54-.59-5.12-.89-7.76-.89-3.93,0-7.21.59-9.84,1.77-2.63,1.18-4.61,2.75-5.92,4.69-1.32,1.95-1.97,4.12-1.97,6.53,0,2.14.42,3.9,1.26,5.29.84,1.39,1.93,2.52,3.26,3.38,1.34.86,2.81,1.56,4.44,2.09,1.62.53,3.24.97,4.86,1.32,1.62.34,3.1.69,4.44,1.03,1.34.34,2.42.78,3.26,1.32.84.53,1.26,1.26,1.26,2.17,0,.65-.22,1.21-.66,1.69-.44.48-1.14.86-2.09,1.14-.95.29-2.21.43-3.78.43-2.33,0-4.66-.37-7.01-1.12-2.35-.74-4.42-1.69-6.21-2.83l-3.72,8.36c1.91,1.3,4.38,2.36,7.41,3.18,3.03.82,6.19,1.23,9.47,1.23,3.97,0,7.26-.59,9.87-1.77.97-.44,1.84-.93,2.63-1.47v2.45h11.33v-10.47h6.98c3.66,0,6.82-.6,9.47-1.8,1.18-.54,2.23-1.19,3.18-1.93v14.21h11.22v-10.04l4.21-4.51,11.47,14.54h13.16l-17.22-22.34ZM64.29,89.2c-1.62-.52-3.24-.94-4.87-1.29-1.62-.34-3.11-.68-4.46-1-1.35-.32-2.44-.74-3.26-1.26-.82-.51-1.23-1.21-1.23-2.09,0-.69.21-1.3.63-1.83.42-.53,1.11-.96,2.06-1.29.95-.32,2.21-.49,3.78-.49,1.75,0,3.57.26,5.44.77,1.84.51,3.7,1.27,5.58,2.27v7.8c-1.13-.64-2.35-1.18-3.66-1.6ZM90.88,91.06c-1.16,1.03-2.93,1.55-5.29,1.55h-6.3v-11.73h6.3c2.37,0,4.13.51,5.29,1.55,1.16,1.03,1.75,2.48,1.75,4.35s-.58,3.26-1.75,4.29Z"/>
    <path class="cls-1" d="M163.21,77.67c-3.96-4.34-9.02-7.49-14.64-9.1-.64-.18-1.13-.69-1.3-1.33-1.01-3.92-2.85-7.65-5.45-11.07-2.57-3.38-5.81-6.37-9.65-8.89-3.88-2.55-8.24-4.54-12.95-5.92-4.88-1.42-10.03-2.14-15.3-2.14s-10.13.68-14.9,2.03c-4.66,1.32-8.98,3.23-12.85,5.7-1.49.95-2.92,1.99-4.24,3.1-.58.48-.82,1.26-.63,2,.27,1,1.15,1.45,1.9,1.45.32,0,.79-.08,1.25-.46,7.59-6.3,18.34-9.91,29.47-9.91,10.41,0,20.28,3.05,27.8,8.6,7.15,5.27,11.5,12.27,12.37,19.85,13.47,2.08,23.44,13.59,23.44,27.4,0,7.39-2.89,14.36-8.14,19.6-5.25,5.24-12.21,8.13-19.59,8.13-.06,0-.13,0-.19,0-1.55-.01-3.1-.15-4.62-.42-.12-.02-.24-.03-.36-.03-.61,0-1.18.28-1.56.78-.22.28-.55.87-.33,1.68.19.73.81,1.29,1.57,1.43,1.81.32,3.66.48,5.49.48,4.27,0,8.42-.84,12.32-2.49,3.77-1.59,7.15-3.88,10.06-6.78,2.9-2.9,5.19-6.29,6.78-10.06,1.65-3.91,2.49-8.05,2.49-12.32,0-7.91-2.93-15.48-8.26-21.32Z"/>
    <path class="cls-1" d="M113.07,130.84c-.32,0-.8.08-1.25.46-7.6,6.33-18.37,9.97-29.54,9.97-17.13,0-32.41-8.47-38.04-20.84l-20.41,13.42c-.31.21-.67.31-1.03.31-.38,0-.77-.12-1.1-.35-.63-.45-.91-1.25-.71-2l4.83-18.11c-8.22-5.93-13.04-15.4-12.98-25.58.11-17.14,14.15-31.08,31.29-31.08,2.36,0,4.72.27,7,.79.15.04.31.05.46.05.61,0,1.17-.28,1.55-.78.22-.28.55-.88.33-1.69-.19-.7-.74-1.24-1.45-1.41-2.56-.59-5.22-.89-7.89-.89-4.75,0-9.36.93-13.71,2.77-4.19,1.77-7.96,4.31-11.19,7.54-3.23,3.23-5.77,7-7.54,11.19-1.84,4.34-2.77,8.95-2.77,13.7,0,4.99,1.02,9.82,3.04,14.35,2.01,4.5,4.88,8.46,8.55,11.77.52.47.74,1.19.55,1.87l-3.83,14.36c-.61,2.29.14,4.69,1.92,6.12,1.03.83,2.32,1.29,3.64,1.29,1.13,0,2.23-.33,3.18-.95l15.33-10.08c.32-.21.67-.31,1.03-.31.58,0,1.16.27,1.52.78.66.91,1.38,1.82,2.14,2.68,2.71,3.08,6,5.78,9.79,8.02,3.76,2.23,7.91,3.96,12.35,5.14,4.55,1.21,9.31,1.83,14.15,1.83,5.11,0,10.12-.68,14.88-2.03,4.66-1.31,8.97-3.23,12.83-5.68,1.53-.98,3-2.05,4.36-3.18.57-.48.82-1.26.62-2-.27-1-1.15-1.45-1.9-1.45Z"/>
    <path class="cls-1" d="M62.77,58.35c1.44,0,2.62-1.17,2.62-2.62s-1.17-2.62-2.62-2.62-2.62,1.17-2.62,2.62,1.17,2.62,2.62,2.62Z"/>
    <path class="cls-1" d="M123.13,125.54c-1.44,0-2.62,1.17-2.62,2.62s1.17,2.62,2.62,2.62,2.62-1.17,2.62-2.62-1.17-2.62-2.62-2.62Z"/>
  </g>
</svg>
