<?xml version="1.0" encoding="UTF-8"?>
<svg id="Capa_1" data-name="Capa 1" xmlns="http://www.w3.org/2000/svg" viewBox="0 0 1164.79 802.17">
  <defs>
    <style>
      .cls-1 {
        fill: #000;
        stroke-width: 0px;
      }
    </style>
  </defs>
  <path class="cls-1" d="M248.49,367.2c-10.8,3.24-25.06,4.86-42.77,4.86-26.36,0-52.81-4.21-79.39-12.64-26.57-8.43-50.01-19.12-70.31-32.08l-42.12,94.61c21.6,14.69,49.57,26.68,83.92,35.97,34.35,9.28,70.09,13.93,107.25,13.93,44.93,0,82.19-6.7,111.79-20.09,29.59-13.39,51.84-31.21,66.75-53.46,14.9-22.25,22.36-46.55,22.36-72.91,0-23.75-4.65-43.52-13.93-59.3-9.3-15.77-21.5-28.51-36.62-38.24-15.13-9.72-31.86-17.5-50.22-23.33-18.37-5.83-36.73-10.69-55.08-14.58-18.37-3.89-35.22-7.67-50.55-11.34-15.34-3.67-27.65-8.43-36.94-14.26-9.29-5.83-13.93-13.71-13.93-23.65,0-7.78,2.37-14.68,7.13-20.74,4.75-6.05,12.53-10.91,23.33-14.58,10.79-3.67,25.05-5.51,42.77-5.51,19.87,0,40.39,2.92,61.56,8.75,21.16,5.83,42.55,14.58,64.15,26.24l39.53-95.26c-22.47-12.96-48.06-22.78-76.79-29.49C281.65,3.43,252.38.08,222.57.08c-44.5,0-81.65,6.7-111.46,20.09-29.81,13.4-52.17,31.11-67.07,53.14-14.9,22.03-22.36,46.66-22.36,73.88,0,24.2,4.75,44.18,14.26,59.94,9.5,15.78,21.81,28.51,36.94,38.23,15.12,9.72,31.85,17.61,50.22,23.65,18.36,6.06,36.72,11.02,55.08,14.91,18.36,3.89,35.1,7.78,50.22,11.66,15.12,3.89,27.43,8.86,36.94,14.91,9.5,6.05,14.26,14.26,14.26,24.63,0,7.35-2.49,13.72-7.45,19.12-4.97,5.41-12.86,9.72-23.65,12.96Z"/>
  <path class="cls-1" d="M661.29,29.25c-30.03-13.39-65.78-20.09-107.25-20.09h-207.38v453.63h128.31v-118.59h79.06c41.47,0,77.22-6.81,107.25-20.41,30.02-13.61,53.24-32.94,69.67-58,16.41-25.05,24.62-54.65,24.62-88.78s-8.21-64.48-24.62-89.76c-16.42-25.27-39.64-44.6-69.67-58ZM606.21,225.6c-13.18,11.66-33.16,17.5-59.94,17.5h-71.29V110.25h71.29c26.78,0,46.76,5.83,59.94,17.5,13.17,11.66,19.77,28.09,19.77,49.25s-6.59,36.94-19.77,48.6Z"/>
  <polygon class="cls-1" points="697.25 9.16 697.25 462.79 824.27 462.79 824.27 349.15 871.91 298.1 1001.83 462.79 1150.88 462.79 955.96 209.8 1141.17 9.16 999.89 9.16 824.27 197.62 824.27 9.16 697.25 9.16"/>
  <g>
    <path class="cls-1" d="M198.83,562.1c-21.08-10.6-45.27-15.9-72.56-15.9H14.05v255.88h112.22c27.29,0,51.48-5.3,72.56-15.9,21.08-10.6,37.47-25.52,49.17-44.78,11.7-19.25,17.55-41.67,17.55-67.26s-5.85-48.01-17.55-67.26c-11.7-19.25-28.09-34.18-49.17-44.78ZM206.14,720.2c-7.92,13.16-18.89,23.39-32.9,30.71-14.02,7.31-30.65,10.97-49.9,10.97h-61.78v-175.46h61.78c19.25,0,35.88,3.66,49.9,10.97,14.01,7.31,24.98,17.43,32.9,30.34,7.92,12.92,11.88,28.39,11.88,46.42s-3.96,32.9-11.88,46.06Z"/>
    <path class="cls-1" d="M479.57,716.55c16.2-7.31,28.69-17.67,37.47-31.07,8.77-13.4,13.16-29.48,13.16-48.25s-4.39-35.33-13.16-48.98c-8.77-13.64-21.26-24.06-37.47-31.25-16.21-7.19-35.64-10.78-58.3-10.78h-105.28v255.88h47.52v-74.57h57.76c3.41,0,6.72-.11,9.99-.28l52.16,74.85h51.18l-58.84-83.96c1.28-.52,2.58-1.02,3.82-1.58ZM466.41,599.75c10.6,8.9,15.9,21.38,15.9,37.47s-5.3,28.64-15.9,37.65c-10.6,9.02-26.38,13.53-47.34,13.53h-55.56v-101.99h55.56c20.96,0,36.74,4.45,47.34,13.34Z"/>
    <rect class="cls-1" x="583.2" y="546.2" width="47.52" height="255.88"/>
    <polygon class="cls-1" points="798.27 743.16 713.33 546.2 661.79 546.2 773.64 802.08 820.43 802.08 931.93 546.2 884.77 546.2 798.27 743.16"/>
    <polygon class="cls-1" points="1006.49 761.87 1006.49 691.69 1130.05 691.69 1130.05 652.58 1006.49 652.58 1006.49 586.41 1145.77 586.41 1145.77 546.2 958.97 546.2 958.97 802.08 1150.88 802.08 1150.88 761.87 1006.49 761.87"/>
  </g>
</svg>
